<?xml version="1.0" encoding="UTF-8" standalone="no"?>
<svg width="35px" height="20px" viewBox="0 0 35 20" version="1.1" xmlns="http://www.w3.org/2000/svg" xmlns:xlink="http://www.w3.org/1999/xlink">
    <!-- Generator: Sketch 39.1 (31720) - http://www.bohemiancoding.com/sketch -->
    <title>UK flag</title>
    <desc>Created with Sketch.</desc>
    <defs></defs>
    <g id="Product-page" stroke="none" stroke-width="1" fill="none" fill-rule="evenodd">
        <g id="Product-page---item-return-policy-UK" transform="translate(-766.000000, -1335.000000)">
            <g id="Group" transform="translate(192.000000, 1264.000000)">
                <g id="lang-tabs" transform="translate(574.000000, 68.000000)">
                    <g id="UK-flag" transform="translate(0.000000, 3.000000)">
                        <polygon id="Shape" fill="#022279" points="0 2.4244 0 6.8352 7.88588889 6.8352"></polygon>
                        <polygon id="Shape" fill="#022279" points="0 13.164 0 17.5756 7.88588889 13.1644"></polygon>
                        <polygon id="Shape" fill="#022279" points="20 20.0000002 31 20 20 14"></polygon>
                        <polygon id="Shape" fill="#022279" points="15 20.0000002 15 14 4 20.0000002"></polygon>
                        <polygon id="Shape" fill="#022279" points="15 -1.08029777e-07 4 2.71827193e-09 15 6"></polygon>
                        <polygon id="Shape" fill="#022279" points="20 6 31.0000004 2.71802492e-09 20 3.18032178e-09"></polygon>
                        <polygon id="Shape" fill="#022279" points="35 6.8352 35 2.4244 27.1141111 6.8352"></polygon>
                        <polygon id="Shape" fill="#022279" points="35 17.5756 35 13.1644 27.1141111 13.1644"></polygon>
                        <polygon id="Shape" fill="#C8191F" points="23.2053889 13.1644 35 19.7196 35 19.7192 35 18.2984 25.7623333 13.1644"></polygon>
                        <polygon id="Shape" fill="#C8191F" points="11.8171667 6.8352 0.0116666667 0.274 0 0.274 0 1.6888 9.26061111 6.8352"></polygon>
                        <polygon id="Shape" fill="#C8191F" points="34.9879444 0.274 32.431 0.274 20.6255 6.8352 23.1820556 6.8352"></polygon>
                        <polygon id="Shape" fill="#C8191F" points="12 13.1644 -8.8817842e-16 19.9999999 2.5 19.9999999 14.5 13.1644"></polygon>
                        <polygon id="Shape" fill="#C8191F" points="19 2.69392331e-09 15.9996111 2.69392331e-09 15.9996109 8.5 0 8.5 0 11.5 15.9996109 11.5 15.9996109 20 19 20 19 11.5 35 11.5 35 8.5 19 8.5"></polygon>
                    </g>
                </g>
            </g>
        </g>
    </g>
</svg>